<svg aria-hidden="true" style="position: absolute; width: 0; height: 0; overflow: hidden;" version="1.1" xmlns="http://www.w3.org/2000/svg" xmlns:xlink="http://www.w3.org/1999/xlink">
<defs>
<symbol id="icon-glass" viewBox="0 0 32 32">
<path fill="none" stroke="#514d66"  stroke-linejoin="miter" stroke-linecap="round" stroke-miterlimit="4" stroke-width="1" d="M12.952 24.381c6.312 0 11.429-5.117 11.429-11.429s-5.117-11.428-11.429-11.428c-6.311 0-11.428 5.117-11.428 11.428s5.117 11.429 11.428 11.429zM21.333 21.333l9.143 9.143"></path>
</symbol>
<symbol id="icon-arrow" viewBox="0 0 43 32">
<path fill="none"  stroke="#514d66"  stroke-linejoin="round" stroke-linecap="round" stroke-miterlimit="4" stroke-width="2.2857" d="M28.213 3.070l12.93 12.93-12.93 12.93"></path>
<path fill="none" stroke="#514d66"  stroke-linejoin="miter" stroke-linecap="round" stroke-miterlimit="4" stroke-width="2.2857" d="M40.359 16h-38.789"></path>
</symbol>
<symbol id="icon-rocket" viewBox="0 0 32 32">
<path d="M29.337 1.131c-0.037-0.003-0.080-0.005-0.124-0.005-0.078 0-0.154 0.006-0.229 0.018l0.008-0.001-3.021 0.443c-3.766 0.565-7.016 2.435-9.341 5.127l-0.016 0.019-4.342 5.044-7.554 1.879c-0.516 0.131-0.954 0.411-1.278 0.791l-0.003 0.003-1.613 1.898c-0.147 0.17-0.237 0.393-0.237 0.637 0 0.151 0.034 0.293 0.095 0.421l-0.003-0.006c0.158 0.34 0.496 0.571 0.889 0.571 0.002 0 0.004 0 0.006-0h5.015c0.023 0.196 0.087 0.384 0.187 0.56l-1.061 1.953c-0.012 0.022-0.024 0.048-0.033 0.075l-0.001 0.004c-0.045 0.132-0.073 0.284-0.077 0.442l-0 0.002-0.222 0.067c-1.776 0.544-3.126 1.912-3.613 3.658-0.406 1.459-0.523 2.963-0.556 3.732-0.010 0.275 0.095 0.543 0.288 0.736 0.177 0.177 0.422 0.286 0.692 0.287h0c0.016 0 0.029 0 0.042-0.002 0.764-0.031 2.262-0.146 3.715-0.548 1.735-0.48 3.142-1.881 3.671-3.652l0.033-0.111c0.027 0.002 0.052 0.005 0.079 0.005 0.183-0 0.359-0.030 0.523-0.086l-0.012 0.003c0.027-0.009 0.051-0.020 0.072-0.034l-0.001 0.001 1.959-1.032c0.147 0.088 0.318 0.153 0.502 0.183l0.008 0.001v4.967c0 0.389 0.217 0.731 0.569 0.895 0.122 0.059 0.264 0.093 0.415 0.093 0.244 0 0.467-0.090 0.638-0.238l1.899-1.615c0.383-0.327 0.662-0.765 0.79-1.263l0.004-0.017 1.846-7.427 5.13-4.415c2.711-2.342 4.581-5.592 5.136-9.274l0.010-0.084 0.44-3.021c0.011-0.067 0.017-0.145 0.017-0.224 0-0.404-0.165-0.769-0.431-1.032l-0-0c-0.237-0.238-0.554-0.395-0.907-0.428l-0.006-0zM29.208 2.111c0.135 0 0.257 0.055 0.346 0.143l-0-0c0.11 0.111 0.161 0.265 0.138 0.421l-0.442 3.019c-0.529 3.523-2.278 6.564-4.795 8.74l-0.018 0.015-5.143 4.425c-0.074 0.037-0.135 0.089-0.18 0.154l-0.001 0.002-4.773 4.106c-0.192 0.167-0.486 0.156-0.67-0.025l-4.972-4.974c-0.089-0.090-0.144-0.213-0.144-0.35 0-0.122 0.044-0.234 0.117-0.321l-0.001 0.001 8.689-10.096c1.049-1.214 2.279-2.236 3.655-3.034l0.068-0.037 2.2 2.2c0.096 0.096 0.222 0.144 0.348 0.144 0.272-0 0.492-0.22 0.492-0.492 0-0.136-0.055-0.259-0.144-0.348l-1.985-1.984c1.195-0.59 2.581-1.032 4.040-1.254l0.079-0.010 3.019-0.442c0.025-0.002 0.050-0.004 0.075-0.004zM25.108 7.138c-0.272 0-0.492 0.22-0.492 0.492 0 0.136 0.055 0.259 0.144 0.348l1.477 1.477c0.096 0.096 0.222 0.144 0.348 0.144 0.272-0 0.492-0.22 0.492-0.492 0-0.136-0.055-0.259-0.144-0.348l-1.477-1.477c-0.089-0.089-0.212-0.144-0.348-0.144v0zM21.169 7.631c-1.629 0-2.954 1.325-2.954 2.954s1.325 2.954 2.954 2.954 2.954-1.325 2.954-2.954-1.325-2.954-2.954-2.954zM21.169 8.615c1.087 0 1.969 0.883 1.969 1.969s-0.883 1.969-1.969 1.969-1.969-0.883-1.969-1.969 0.883-1.969 1.969-1.969zM11.162 13.065l-3.234 3.76c-0.042 0.052-0.077 0.106-0.112 0.16h-5.242l1.615-1.9c0.196-0.229 0.459-0.397 0.758-0.472l0.010-0.002 6.206-1.544zM17.367 13.254c-0 0-0.001 0-0.001 0-0.272 0-0.492 0.22-0.492 0.492 0 0.136 0.055 0.259 0.144 0.348v0l0.698 0.696c0.095 0.096 0.222 0.144 0.346 0.144 0.001 0 0.002 0 0.003 0 0.135 0 0.257-0.055 0.345-0.144l0-0c0.090-0.089 0.146-0.212 0.146-0.348s-0.056-0.259-0.146-0.348l-0-0-0.694-0.696c-0.089-0.089-0.212-0.144-0.349-0.144h-0zM15.625 14.994c-0.272 0-0.492 0.22-0.492 0.492 0 0.136 0.055 0.259 0.144 0.348v0l0.698 0.696c0.095 0.096 0.222 0.144 0.348 0.144 0 0 0.001 0 0.001 0 0.135 0 0.257-0.055 0.345-0.144l0-0c0.090-0.089 0.146-0.213 0.146-0.349s-0.056-0.26-0.146-0.349l-0-0-0.696-0.694c-0.089-0.089-0.212-0.144-0.348-0.144v0zM13.885 16.737c-0.001 0-0.003-0-0.004-0-0.271 0-0.49 0.22-0.49 0.49 0 0.137 0.056 0.261 0.146 0.349l0 0 0.696 0.694c0.096 0.096 0.222 0.144 0.348 0.144 0 0 0.001 0 0.001 0 0.136 0 0.258-0.055 0.347-0.144l0-0c0.089-0.089 0.144-0.211 0.144-0.347s-0.055-0.258-0.144-0.347l-0-0-0.696-0.698c-0.089-0.088-0.211-0.142-0.345-0.142-0.001 0-0.002 0-0.003 0h0zM12.146 18.477c-0.001 0-0.003-0-0.004-0-0.135 0-0.256 0.055-0.344 0.144l-0 0c-0.090 0.088-0.146 0.211-0.146 0.347s0.056 0.259 0.146 0.347l0 0 0.694 0.698c0.089 0.088 0.212 0.143 0.348 0.143s0.259-0.055 0.348-0.143l-0 0c0.192-0.192 0.192-0.504 0-0.698l-0.696-0.694c-0.087-0.089-0.209-0.144-0.343-0.144-0.001 0-0.002 0-0.003 0h0zM8.475 19.306l4.023 4.025-1.6 0.842c-0.189 0.054-0.369 0.016-0.487-0.101l-2.675-2.673c-0.093-0.093-0.151-0.222-0.151-0.364 0-0.045 0.006-0.088 0.016-0.13l-0.001 0.004 0.873-1.602zM18.656 20.723l-1.511 6.077c-0.078 0.31-0.246 0.573-0.474 0.768l-0.002 0.002-1.899 1.613v-5.148c0.075-0.044 0.147-0.094 0.216-0.152l3.671-3.16zM6.907 21.94c0.040 0.054 0.085 0.106 0.133 0.152l2.675 2.677c0.008 0.007 0.017 0.011 0.025 0.021l-0.063 0.212c-0.433 1.452-1.579 2.594-2.99 2.985-1.358 0.377-2.771 0.484-3.49 0.519 0.031-0.725 0.14-2.146 0.519-3.512 0.396-1.419 1.5-2.534 2.954-2.978l0.238-0.075z"></path>
</symbol>
<symbol id="icon-instagram" viewBox="0 0 32 32">
<path fill="#fff"  d="M16 0c-4.347 0-4.89 0.021-6.595 0.096-1.706 0.080-2.864 0.349-3.885 0.744-1.11 0.424-2.055 1.051-2.834 1.844l-0.001 0.001c-0.794 0.779-1.422 1.725-1.827 2.782l-0.018 0.053c-0.395 1.021-0.666 2.179-0.744 3.885-0.080 1.706-0.096 2.248-0.096 6.595s0.021 4.89 0.096 6.597c0.080 1.702 0.349 2.864 0.744 3.883 0.424 1.109 1.052 2.055 1.844 2.834l0.001 0.001c0.78 0.794 1.726 1.421 2.782 1.827l0.054 0.018c1.021 0.395 2.181 0.666 3.885 0.744 1.706 0.080 2.248 0.096 6.595 0.096s4.89-0.021 6.597-0.096c1.702-0.080 2.864-0.349 3.883-0.744 1.109-0.425 2.055-1.052 2.834-1.844l0.001-0.001c0.888-0.89 1.438-1.781 1.845-2.835 0.395-1.019 0.666-2.181 0.744-3.883 0.080-1.707 0.096-2.25 0.096-6.597s-0.021-4.89-0.096-6.595c-0.080-1.704-0.349-2.866-0.744-3.885-0.424-1.109-1.052-2.055-1.844-2.834l-0.001-0.001c-0.779-0.795-1.725-1.422-2.782-1.827l-0.053-0.018c-1.019-0.395-2.181-0.666-3.883-0.744-1.707-0.080-2.25-0.096-6.597-0.096zM16 2.88c4.272 0 4.781 0.021 6.467 0.096 1.56 0.072 2.406 0.331 2.968 0.552 0.75 0.288 1.28 0.635 1.843 1.195 0.56 0.56 0.906 1.091 1.195 1.84 0.218 0.563 0.48 1.41 0.55 2.97 0.075 1.688 0.093 2.195 0.093 6.467s-0.019 4.781-0.098 6.467c-0.082 1.56-0.342 2.406-0.562 2.968-0.299 0.75-0.64 1.28-1.2 1.843-0.557 0.56-1.098 0.906-1.84 1.195-0.56 0.218-1.419 0.48-2.979 0.55-1.698 0.075-2.198 0.093-6.478 0.093-4.282 0-4.781-0.019-6.48-0.098-1.56-0.082-2.421-0.342-2.979-0.562-0.76-0.299-1.28-0.64-1.84-1.2-0.522-0.502-0.932-1.117-1.189-1.806l-0.011-0.034c-0.219-0.56-0.478-1.419-0.56-2.979-0.059-1.68-0.080-2.198-0.080-6.458 0-4.262 0.021-4.782 0.080-6.482 0.082-1.56 0.341-2.419 0.56-2.979 0.28-0.76 0.64-1.28 1.2-1.84s1.080-0.92 1.84-1.2c0.56-0.219 1.4-0.48 2.96-0.56 1.701-0.059 2.2-0.080 6.48-0.080l0.059 0.040zM16 7.784c-4.538 0-8.216 3.678-8.216 8.216s3.678 8.216 8.216 8.216v0c4.538 0 8.216-3.678 8.216-8.216s-3.678-8.216-8.216-8.216v0zM16 21.333c-2.944-0.001-5.33-2.387-5.33-5.331s2.387-5.331 5.331-5.331c2.944 0 5.33 2.386 5.331 5.33v0c0 0 0 0.001 0 0.002 0 2.944-2.387 5.331-5.331 5.331-0.001 0-0.001 0-0.002 0h0zM26.461 7.461c0 1.060-0.86 1.92-1.92 1.92s-1.92-0.86-1.92-1.92v0c0-1.060 0.86-1.92 1.92-1.92s1.92 0.86 1.92 1.92v0z"></path>
</symbol>
<symbol id="icon-twitter" viewBox="0 0 32 32">
<path fill="#fff"  d="M31.939 6.093c-1.096 0.496-2.368 0.859-3.701 1.025l-0.065 0.007c1.354-0.824 2.373-2.085 2.87-3.584l0.013-0.047c-1.269 0.741-2.672 1.28-4.17 1.579-1.2-1.282-2.903-2.080-4.792-2.080-3.623 0-6.56 2.937-6.56 6.56 0 0.531 0.063 1.047 0.182 1.541l-0.009-0.045c-5.463-0.271-10.271-2.863-13.494-6.802l-0.026-0.033c-0.558 0.933-0.888 2.058-0.888 3.26 0 0.014 0 0.028 0 0.043v-0.002c0 0.002 0 0.004 0 0.005 0 2.265 1.148 4.262 2.894 5.441l0.023 0.015c-1.096-0.036-2.115-0.336-3.004-0.838l0.033 0.017v0.080c0 0.001 0 0.002 0 0.004 0 3.164 2.239 5.806 5.22 6.426l0.043 0.007c-0.517 0.144-1.112 0.227-1.725 0.227-0.433 0-0.857-0.041-1.267-0.12l0.042 0.007c0.868 2.628 3.278 4.501 6.133 4.557l0.007 0c-2.213 1.75-5.044 2.806-8.122 2.806-0.005 0-0.010 0-0.014 0h0.001c-0.52 0-1.040-0.032-1.56-0.090 2.845 1.846 6.325 2.944 10.060 2.944 0.005 0 0.011 0 0.016 0h-0.001c12.072 0 18.666-9.994 18.666-18.646 0-0.28 0-0.56-0.019-0.84 1.28-0.92 2.4-2.080 3.28-3.398l-0.064-0.026z"></path>
</symbol>
<symbol id="icon-linkedin" viewBox="0 0 32 32">
<path fill="#fff"  d="M6.723 20.219c-0.004 1.855-1.505 3.358-3.359 3.365h-0.001c-1.857-0.004-3.36-1.508-3.363-3.365v-0c0.005-1.855 1.508-3.356 3.363-3.36h3.36v3.36zM8.418 20.219c0.005-1.853 1.507-3.355 3.359-3.36h0.001c1.855 0.004 3.358 1.505 3.363 3.359v8.418c-0.005 1.855-1.507 3.358-3.361 3.363h-0.001c-1.855-0.005-3.357-1.508-3.362-3.363v-8.416zM11.778 6.723c-1.853-0.006-3.354-1.507-3.36-3.359v-0.001c0.005-1.854 1.505-3.356 3.358-3.363h0.001c1.856 0.005 3.359 1.508 3.363 3.363v3.36h-3.36zM11.778 8.418c1.854 0.005 3.357 1.506 3.363 3.359v0.001c-0.004 1.855-1.506 3.359-3.361 3.363h-8.416c-1.855-0.005-3.358-1.507-3.363-3.361v-0.001c0.005-1.856 1.508-3.359 3.363-3.363h8.416zM25.275 11.778c0.006-1.854 1.508-3.355 3.361-3.36h0.001c1.854 0.005 3.356 1.505 3.363 3.358v0.001c-0.005 1.856-1.508 3.359-3.363 3.363h-3.362v-3.36zM23.584 11.778c-0.005 1.856-1.509 3.36-3.364 3.363h-0c-1.854-0.005-3.355-1.507-3.36-3.361v-8.416c0.004-1.855 1.505-3.358 3.359-3.363h0.001c1.856 0.004 3.36 1.507 3.365 3.363v8.416zM20.219 25.275c1.856 0.003 3.36 1.506 3.365 3.361v0c-0.004 1.857-1.508 3.36-3.365 3.363h-0c-1.855-0.005-3.356-1.508-3.36-3.363v-3.362h3.36zM20.219 23.584c-1.855-0.005-3.357-1.509-3.36-3.365v-0c0.005-1.854 1.506-3.355 3.36-3.36h8.418c1.855 0.004 3.358 1.505 3.363 3.359v0.001c-0.004 1.856-1.507 3.36-3.363 3.365h-8.416z"></path>
</symbol>
<symbol id="icon-facebook" viewBox="0 0 32 32">
<path fill="#fff"  d="M18.285 32v-16.002h4.416l0.587-5.515h-5.003l0.008-2.76c0-1.438 0.136-2.208 2.202-2.208h2.762v-5.515h-4.418c-5.307 0-7.174 2.675-7.174 7.174v3.31h-3.307v5.514h3.307v16.002h6.621z"></path>
</symbol>
</defs>
</svg>
